# xmcd
#
# Track frame offsets:
#  150
#  21635
#  50944
#  73039
#  119419
#  140334
#  175259
#  217686
#  248636
#
# Disc length: 3740 seconds
#
# Revision: 0
# Processed by: cddbd v1.5.2PL0 Copyright (c) Steve Scherf et al.
# Submitted via: Collectorz.com_Music_Collector 6.11
#
DISCID=860e9a09
DTITLE=Eric Clapton - Ole! Un Reptil En Argentina [CD2)
DYEAR=2004
DGENRE=Blues
TTITLE0=I Want a Little Girl
TTITLE1=Badge
TTITLE2=Hoochie Coochie Man
TTITLE3=Stormy Monday
TTITLE4=Cocaine
TTITLE5=Wonderful Tonight
TTITLE6=Layla
TTITLE7=Sunshine of Your Love
TTITLE8=Somewhere Over the Rainbow
EXTD=
EXTT0=
EXTT1=
EXTT2=
EXTT3=
EXTT4=
EXTT5=
EXTT6=
EXTT7=
EXTT8=
PLAYORDER=
